<?xml version="1.0" encoding="UTF-8"?><svg id="d" xmlns="http://www.w3.org/2000/svg" width="10in" height="10in" viewBox="0 0 720 720"><path d="M493.53,580.84h-13.44c-1.65-.19-3.29-.41-4.94-.57-14.32-1.4-28.3-4.44-41.66-9.74-10.69-4.24-21.13-9.11-31.59-13.91-12.13-5.57-24.21-11.25-36.21-17.1-9.72-4.73-19.01-10.24-27.45-17.06-10.59-8.56-19.48-18.48-24.74-31.27-.09-.22-.37-.36-.77-.72-.05,8.28.03,16.22-.05,24.45-1.05-.45-1.71-.71-2.34-1.01-29.43-13.87-58.86-27.75-88.28-41.63-1.73-.82-4-1.25-5.03-2.61-1.02-1.35-.85-3.63-1.11-5.52-1.55-11.16-3.08-22.33-4.6-33.5-1.67-12.28-3.32-24.56-4.99-36.83-1.71-12.59-3.43-25.19-5.16-37.78-.45-3.3-.95-6.59-1.51-10.5-23.28,28.2-46.2,55.96-69.12,83.72-.47-.2-.77-.32-1.06-.46-20.23-9.57-40.46-19.14-60.7-28.69-2.38-1.12-4.83-2.08-7.25-3.11,0-26.56,0-53.12,0-79.68.5-.35,1.09-.62,1.48-1.06,1.54-1.73,3.03-3.51,4.53-5.28,55.22-65.38,110.44-130.77,165.67-196.15,1.59-1.88,3.23-3.72,4.89-5.64,1.03.38,1.93.69,2.82,1.04,19.68,7.82,39.36,15.64,59.04,23.47q3.83,1.52,3.83,5.71c0,18.16,0,36.32,0,54.47,0,.93,0,1.85,0,2.95.97-.23,1.59-.35,2.19-.53,27.72-8.25,55.45-16.48,83.15-24.83,2.53-.76,4.75-.94,7.05.42.75.44,1.61.69,2.43,1.01,25.99,10.34,51.98,20.69,77.96,31.03.72.29,1.43.62,2.32,1v12.78c.62.04,1.01.1,1.39.09,6.48-.06,12.95.21,19.39,1.03,13.06,1.66,25.79,4.6,38.05,9.45,15.01,5.93,30.02,11.88,45.05,17.76,9.38,3.67,18.8,7.24,27.78,11.83,12.94,6.61,24.67,14.82,34.11,26.01,8.24,9.78,13.61,20.82,14.56,33.76.03.37.25.72.38,1.09v90.72c-.14.52-.39,1.05-.41,1.57-.13,4.35-1.16,8.54-2.33,12.69-3.97,14-10.71,26.64-19.12,38.43-2.18,3.05-4.44,6.04-6.72,9.13-9.47-4.05-18.83-8.05-28.5-12.18,0,1.32,0,2.18,0,3.05.09,15.75.18,31.49.3,47.24.01,1.39-.15,2.62-1.07,3.79-4.37,5.51-8.51,11.2-13.02,16.6-10.79,12.9-23.08,24.13-37.5,32.91-15.52,9.45-32.27,15.29-50.36,17.26-2.45.27-4.89.58-7.34.87ZM628.93,384.39c5.33-6.88,9.98-13.85,13.85-21.32,4.87-9.42,8.72-19.2,10.26-29.78,2.11-14.46-.66-27.85-8.87-39.99-5.44-8.04-12.43-14.58-20.27-20.25-9.65-6.99-20.26-12.19-31.29-16.57-19.46-7.74-38.88-15.55-58.45-22.98-19.05-7.24-38.8-10.61-59.24-9.37-17.02,1.03-33.03,5.64-48.01,13.75-17.05,9.24-31.35,21.79-43.44,36.85-10.31,12.85-20.46,25.83-30.58,38.83-6.87,8.84-13.78,17.66-20.27,26.77-7.25,10.17-12.49,21.39-15.42,33.58-4.67,19.43-.83,36.92,12.26,52.22,5.6,6.55,12.06,12.12,19.14,16.99,9.32,6.41,19.36,11.54,29.58,16.3,13.76,6.41,27.64,12.59,41.35,19.12,12.11,5.76,24.59,10.35,37.67,13.27,14.79,3.31,29.72,4.43,44.79,2.49,18.82-2.42,36-9.15,51.66-19.85,15.37-10.51,27.86-23.92,38.98-38.71.22-.29.31-.68.5-1.13-21.03-9.22-41.94-18.39-62.76-27.51-2.32,2.1-4.39,4.1-6.59,5.94-11.93,9.98-25.65,15.11-41.24,14.99-11.27-.09-22.03-2.68-32.33-7.15-7.99-3.47-15.93-7.05-23.85-10.68-7.02-3.22-13.52-7.27-19.15-12.61-11.82-11.21-15.19-24.56-9.95-40.01,2.15-6.34,5.44-12.09,9.48-17.41,6.77-8.92,13.52-17.85,20.39-26.69,2.79-3.6,5.71-7.12,8.84-10.42,7.07-7.48,15.31-13.31,24.99-16.98,13.57-5.15,27.39-5.26,41.25-1.56,11.44,3.05,22.5,7.3,33.29,12.17,4.87,2.2,9.55,4.85,14.16,7.56,4.78,2.8,9.03,6.34,12.69,10.53,3.91,4.47,6.73,9.51,8.05,15.34,1.96,8.71.51,16.99-3.08,25.01-.35.78-.68,1.56-1.07,2.46,20.97,8.96,41.75,17.84,62.71,26.8ZM469.12,207.6c-.58-.25-1.15-.5-1.74-.74-24.5-9.77-49-19.53-73.49-29.32-1.12-.45-2.09-.47-3.23-.13-24.19,7.23-48.39,14.45-72.6,21.62-27.58,8.17-55.18,16.29-82.77,24.42-3.2.94-6.44,1.79-9.65,2.68-.1-.13-.19-.25-.29-.38,23.47-29.08,47.5-57.71,71.42-86.78-19.08-7.6-37.91-15.1-56.81-22.62-56.1,66.36-112.05,132.55-168.21,198.99,19.27,9.08,38.18,18,57.24,26.98.26-.36.44-.63.64-.88,15.87-19.26,31.72-38.54,47.64-57.76,8.16-9.85,16.46-19.6,24.72-29.37.52-.62.92-1.49,1.96-1.58.19,1.2.39,2.3.54,3.41,2.94,21.62,5.88,43.25,8.82,64.87,2.87,21.07,5.76,42.13,8.59,63.21.19,1.45.81,2.21,2.12,2.82,5.88,2.71,11.72,5.51,17.56,8.3,20.12,9.61,40.24,19.24,60.36,28.86.88.42,1.79.79,3.03,1.33-.44-2.78-.78-5.06-1.16-7.33-4.25-25.79-8.52-51.57-12.76-77.36-3.67-22.32-7.31-44.64-10.94-66.97-.5-3.06-.84-6.14-1.29-9.53,63.47-18.98,126.89-37.47,190.3-56.73ZM426.66,403.56c.94.47,1.63.85,2.35,1.18,7.58,3.41,15.16,6.82,22.75,10.2,6.9,3.07,14.07,5.25,21.55,6.33,10.9,1.57,21.52.66,31.74-3.68,8.39-3.56,15.39-9.06,21.65-15.59.7-.74,1.44-1.44,2.16-2.16,10.29,4.38,20.27,8.97,30.37,13.23,0-3.9-.05-7.49.02-11.06.03-1.46-.33-2.66-1.39-3.66-.52-.49-.98-1.06-1.48-1.57-5.24-5.43-11.62-9.22-18.24-12.66-9.61-4.98-19.87-8.38-30.01-12.05-5.42-1.96-11.01-3.32-16.75-4.01-15.9-1.92-30.29,1.72-43.08,11.48-8.64,6.59-15.01,15.2-21.65,24.03ZM308.8,411.5c.15-.01.3-.02.44-.03v-2.57c0-6.64.02-13.28,0-19.91-.02-5.06.58-10.05,1.69-14.98,2.91-12.86,8.36-24.63,15.57-35.61.55-.84,1.1-1.69,1.98-3.04-10.56,3.12-20.55,6.07-30.69,9.07,3.69,22.51,7.34,44.79,11,67.07Z" fill="#000" stroke-width="0"/></svg>