<?xml version="1.0" encoding="UTF-8"?><svg id="c" xmlns="http://www.w3.org/2000/svg" width="10in" height="10in" viewBox="0 0 720 720"><path d="M141.44,307.78c.42-.4.86-.79,1.26-1.21,20.62-21.34,41.23-42.68,61.85-64.01,16.2-16.76,32.4-33.53,48.6-50.29,4.46-4.62,8.95-9.21,13.35-13.87.71-.75,1.4-1.06,2.36-.98.24.02.48,0,.73,0,39.3,0,78.6,0,117.9,0h2.25c1,3.29,1.95,6.47,2.93,9.64.21.68-.07,1.16-.52,1.62-.94.95-1.85,1.91-2.78,2.87-22.3,23.08-44.59,46.16-66.89,69.24-20.66,21.38-41.32,42.75-61.99,64.13-7.36,7.62-14.73,15.24-22.09,22.86-.42.43-.81.89-1.34,1.49.46.52.86,1.02,1.31,1.48,11.99,12.41,23.98,24.82,35.97,37.23,18.55,19.2,37.1,38.41,55.66,57.61,19.9,20.59,39.81,41.18,59.72,61.77.8.83,1.57,1.68,2.4,2.48.6.57.73,1.18.49,1.96-.87,2.77-1.72,5.55-2.53,8.34-.28.95-.77,1.46-1.81,1.34-.42-.05-.85,0-1.27,0-39,0-78,0-116.99.03-1.6,0-2.68-.5-3.77-1.63-21.1-21.88-42.23-43.73-63.35-65.59-19.82-20.51-39.63-41.03-59.44-61.54-.65-.68-1.32-1.34-1.98-2.01-.13.05-.26.09-.39.14-.02.63-.07,1.26-.07,1.88,0,16.17,0,32.34,0,48.5,0,24.16,0,48.32.03,72.48,0,1.18-.31,2.1-1.07,2.96-1,1.13-1.99,2.29-2.88,3.51-.75,1.03-1.63,1.43-2.91,1.41-4.3-.07-8.6-.03-12.9-.03-21.98,0-43.96-.02-65.94.04-1.63,0-2.73-.45-3.66-1.77-1.11-1.58-2.8-2.9-3.42-4.63-.6-1.67-.18-3.71-.18-5.58,0-108.21,0-216.42-.03-324.63,0-1.3.31-2.32,1.2-3.27,1.03-1.1,1.99-2.29,2.88-3.51.49-.68,1.06-.87,1.84-.86,2.72.03,5.45.01,8.17.01,24.04,0,48.08,0,72.12-.03,1.32,0,2.28.24,3.04,1.42.75,1.16,1.71,2.2,2.64,3.24.77.86,1.2,1.77,1.09,2.95-.08.84-.02,1.69-.02,2.54,0,39.42,0,78.84,0,118.26v1.78c.15.06.3.13.45.19Z" fill="#000" stroke-width="0"/><path d="M597.14,377.75c.75-.03,1.4-.09,2.05-.09,28.1,0,56.19,0,84.29-.03,1.36,0,2.28.4,3.06,1.49.92,1.27,1.95,2.47,2.98,3.66.58.68.83,1.4.83,2.31-.07,15.49-1.35,30.84-5.1,45.92-4.03,16.21-10.54,31.28-20.88,44.56-8.29,10.65-18.31,19.27-29.93,26.1-10.63,6.24-22.04,10.54-33.93,13.6-11.47,2.95-23.13,4.68-34.94,5.39-2.35.14-4.71.24-7.07.25-6.9.03-13.81.01-20.71.01-.79,0-1.58-.01-2.36.02-9.91.46-19.83.39-29.75.41-6.48,0-12.96.06-19.44-.01-16.39-.18-32.64-1.62-48.6-5.52-14.94-3.65-29.04-9.26-41.84-17.91-9.72-6.57-18.02-14.61-25.04-24.02-9.38-12.56-15.47-26.62-19.38-41.72-2.97-11.48-4.4-23.18-5.08-34.99-.02-.36-.01-.73-.01-1.09-.03-15.92-.05-31.85-.08-47.77-.02-9.63.05-19.26-.12-28.88-.19-10.13.13-20.22,1.23-30.28,1.75-15.99,5.52-31.46,12.43-46.07,8.13-17.19,19.97-31.22,35.68-41.97,10.69-7.32,22.39-12.47,34.77-16.14,12.59-3.73,25.47-5.83,38.55-6.82.96-.07,1.94-.09,2.9-.09,10.11,0,20.22,0,30.34,0,19.07,0,38.14.1,57.21-.05,8.51-.07,16.92.71,25.3,2.02,11.15,1.75,22.06,4.47,32.6,8.58,11.36,4.43,21.94,10.25,31.31,18.09,6.52,5.45,12.34,11.57,17.41,18.44,9.08,12.32,15.06,26.02,18.94,40.74,3.07,11.64,4.65,23.51,5.22,35.51.2,4.23.06,8.48.02,12.71,0,.56-.24,1.2-.58,1.65-1.11,1.51-2.34,2.94-3.48,4.43-.52.68-1.13,1.05-2.01.96-.36-.04-.73,0-1.09,0-26.4,0-52.8-.02-79.2.04-1.68,0-2.83-.43-3.82-1.82-.9-1.26-2.16-2.26-3.12-3.49-.41-.53-.51-1.33-.63-2.03-.73-4.25-1.81-8.4-3.37-12.42-4.82-12.39-13.28-21.35-25.34-26.92-6.09-2.82-12.51-4.48-19.1-5.63-10.56-1.84-21.2-1.99-31.86-1.77-4.6.09-9.21.03-13.8.33-6.1.39-12.2.89-18.2,2.16-8.06,1.71-15.73,4.39-22.65,8.98-9.85,6.55-16.13,15.69-19.52,26.92-1.42,4.71-2.28,9.53-2.78,14.42-.66,6.34-.44,12.69-.41,19.05,0,.67.03,1.33.03,2,0,10.35-.04,20.71.01,31.06.03,7.12,1.04,14.11,3.09,20.95,4.93,16.43,15.61,27.4,31.66,33.22,6.93,2.51,14.11,3.84,21.44,4.52,8.1.75,16.21.44,24.32.37,3.33-.03,6.66-.11,9.99-.02,9.02.24,17.89-.73,26.62-2.96,6.85-1.75,13.31-4.44,19.15-8.49,9.78-6.78,15.83-16.14,19.06-27.47,1.15-4.03,1.84-8.14,2.37-12.29.08-.65.22-1.29.35-2.08Z" fill="#000" stroke-width="0"/></svg>